<?xml version="1.0" ?><svg data-name="Layer 1" id="Layer_1" viewBox="0 0 128 128" xmlns="http://www.w3.org/2000/svg"><defs><style>.cls-1{fill:#f66;}.cls-2{fill:#ff9364;}.cls-3{fill:#ffba7b;}.cls-4{fill:#fff0ca;}.cls-5{fill:#7c3c23;}.cls-6{fill:#fff7d7;}.cls-11,.cls-17,.cls-18,.cls-7,.cls-8,.cls-9{fill:none;}.cls-7{stroke:#7c3c23;}.cls-11,.cls-17,.cls-18,.cls-7{stroke-linecap:round;stroke-width:4px;}.cls-17,.cls-18,.cls-7,.cls-8,.cls-9{stroke-miterlimit:10;}.cls-8{stroke:#fff;stroke-linecap:square;}.cls-8,.cls-9{stroke-width:2px;}.cls-9{stroke:#f66;}.cls-10{fill:#a7e8ea;}.cls-10,.cls-16{opacity:0.51;}.cls-11{stroke:#a8c9cc;stroke-linejoin:round;}.cls-12{fill:#ffbc00;}.cls-12,.cls-13,.cls-14{opacity:0.66;}.cls-14{fill:#ffe4a1;}.cls-15{fill:#e8e9e3;}.cls-16,.cls-19,.cls-20{fill:#fff;}.cls-17{stroke:#c1c0b8;}.cls-18{stroke:#ba934d;}.cls-19{opacity:0.3;}</style></defs><title/><circle class="cls-1" cx="64" cy="66" r="60"/><circle class="cls-2" cx="40.33" cy="40.33" r="40.33"/><circle class="cls-3" cx="41" cy="45.67" r="33.41"/><circle class="cls-4" cx="41" cy="47.98" r="27.65"/><path class="cls-5" d="M128,72.3l-.13-.29S107.08,56,70.28,93.75c1.17,8.4,7.2,14.34,11.47,19.5a106.1,106.1,0,0,1,7.56,10.06A63,63,0,0,0,128,72.3Z"/><polygon class="cls-5" points="91 121 90 125 70 126 67.5 114.05 86 112 91 121"/><path class="cls-6" d="M47.68,15.79a7.28,7.28,0,0,0-3.14.72,11.71,11.71,0,0,0-23.22,2.21c0,.06,0,.13,0,.19a5.85,5.85,0,1,0-1.47,11.52H47.68a7.32,7.32,0,1,0,0-14.64Z"/><path class="cls-5" d="M70.34,112.28c-3.22-8.61-7.65-12.19-8.8-20.68a32.06,32.06,0,0,1-.18-5.84C30,61.54,12.9,69.24,5,76.94A60,60,0,0,0,73.18,125.3,37.71,37.71,0,0,0,70.34,112.28Z"/><line class="cls-7" x1="16.7" x2="16.7" y1="72.7" y2="54.63"/><path class="cls-5" d="M22.61,46.79c0,6.94-2.65,7.39-5.91,7.39s-5.91-.45-5.91-7.39S13.43,25,16.7,25,22.61,39.85,22.61,46.79Z"/><line class="cls-7" x1="30.82" x2="30.82" y1="77.64" y2="62.57"/><path class="cls-5" d="M36.73,54.73c0,6.94-2.65,7.39-5.91,7.39s-5.91-.45-5.91-7.39,2.65-21.79,5.91-21.79S36.73,47.8,36.73,54.73Z"/><path class="cls-1" d="M118,36a9.94,9.94,0,0,0-4.29,1A16,16,0,0,0,82,40c0,.09,0,.18,0,.26A8,8,0,1,0,80,56h38a10,10,0,0,0,0-20Z"/><line class="cls-8" x1="39" x2="49" y1="50" y2="50"/><line class="cls-8" x1="44" x2="44" y1="55" y2="45"/><circle class="cls-9" cx="117" cy="12" r="5"/><path class="cls-8" d="M115.12,83.88A3,3,0,0,0,110,86h0a3,3,0,0,0-5.12-2.12A2.86,2.86,0,0,0,105,88l5,6,5-6A2.86,2.86,0,0,0,115.12,83.88Z"/><path class="cls-6" d="M118,31a9.94,9.94,0,0,0-4.29,1A16,16,0,0,0,82,35c0,.09,0,.18,0,.26A8,8,0,1,0,80,51h38a10,10,0,0,0,0-20Z"/><line class="cls-7" x1="110.82" x2="110.82" y1="77.64" y2="62.57"/><path class="cls-5" d="M116.73,54.73c0,6.94-2.65,7.39-5.91,7.39s-5.91-.45-5.91-7.39,2.65-21.79,5.91-21.79S116.73,47.8,116.73,54.73Z"/><path class="cls-10" d="M103,12H41c18,64,7,85.56,6.52,103.78a10,10,0,0,0,10,10.22h29a10,10,0,0,0,10-10.22C96,97.56,85,76,103,12Z"/><path class="cls-11" d="M48,109.18c-.28,2.29-.48,4.47-.53,6.6a10,10,0,0,0,10,10.22h29a10,10,0,0,0,10-10.22c-.05-2.23-.27-4.5-.56-6.9"/><path class="cls-12" d="M98,32H46c9.23,42.36,3.86,62.12,2,77.18C53.17,111.9,60.73,114,71.91,114c11,0,23.22-4.74,24-5.12C94.05,93.86,88.81,74.08,98,32Z"/><g class="cls-13"><path class="cls-14" d="M92.32,105.84c-3,.44-6.2.72-9.4.91-3.57.21-7.24.31-10.92.31s-7.35-.1-10.92-.31c-3.2-.18-6.38-.47-9.4-.91-1-.14-2.15-.29-3.12-.5-.19,1.32-.37,2.61-.52,3.86a17.6,17.6,0,0,0,3.63,1.64,45.48,45.48,0,0,0,9.4,2.4,72.93,72.93,0,0,0,21.83,0,45.48,45.48,0,0,0,9.4-2.4A17.6,17.6,0,0,0,96,109.19c-.15-1.25-.33-2.53-.52-3.86C94.47,105.54,93.31,105.69,92.32,105.84Z"/></g><path class="cls-15" d="M95,2H49a8,8,0,0,0-8,8v2c2,7.19,3.67,13.83,5,20H98c1.12-5.12,2.44-10.56,4-16.37V12h1V10A8,8,0,0,0,95,2Z"/><path class="cls-16" d="M43,12c18,64,7,85.56,6.52,103.78a9.94,9.94,0,0,0,4,8.22h8a9.94,9.94,0,0,1-4-8.22c.4-16.72,9.72-36.24-2.63-88.75a9,9,0,0,1,8.77-11h2.55a5,5,0,0,1,5,5.42c-4.64,56.76-1.43,77.06-1.29,94.36A21.8,21.8,0,0,1,68.6,124H81.68a11,11,0,0,0,3.17-8.22C84.52,98.34,76.51,77.84,88.29,20a5,5,0,0,1,4.9-4H97c4,0,4-4,4-4Z"/><path class="cls-17" d="M98,32c1.34-6.17,3-12.81,5-20"/><path class="cls-17" d="M41,12c2,7.18,3.67,13.83,5,20"/><path class="cls-18" d="M46,32c9.23,42.36,3.86,62.12,2,77.18C53.17,111.9,60.73,114,71.91,114c11,0,23.22-4.74,24-5.12-1.87-15-7.1-34.8,2.07-76.88"/><circle class="cls-19" cx="88" cy="48" r="2"/><circle class="cls-19" cx="84" cy="64" r="2"/><circle class="cls-19" cx="67" cy="84" r="2"/><circle class="cls-19" cx="86" cy="93" r="2"/><circle class="cls-19" cx="62" cy="57" r="2"/><circle class="cls-19" cx="64" cy="99" r="2"/><circle class="cls-19" cx="75" cy="75" r="2"/><circle class="cls-19" cx="63" cy="38" r="2"/><circle class="cls-19" cx="77" cy="40" r="2"/><circle class="cls-20" cx="79" cy="18" r="3"/><circle class="cls-20" cx="50" cy="16" r="2"/><circle class="cls-20" cx="61" cy="21" r="3"/><circle class="cls-20" cx="91" cy="16" r="3"/><circle class="cls-20" cx="96" cy="23" r="2"/><circle class="cls-20" cx="83" cy="25" r="2"/><circle class="cls-20" cx="67" cy="28" r="2"/><circle class="cls-20" cx="60" cy="7" r="2"/><circle class="cls-20" cx="83" cy="6" r="2"/><circle class="cls-20" cx="72" cy="11" r="2"/><circle class="cls-20" cx="95" cy="8" r="2"/></svg>